<svg xmlns="http://www.w3.org/2000/svg" viewBox="0 0 1600 900" preserveAspectRatio="xMidYMid slice" aria-hidden="true" focusable="false">
  <g fill="none" stroke="#fff" stroke-opacity="0.15">
    <path d="M60 64h30M75 49v30"/>
    <path d="M1510 64h30M1525 49v30"/>
    <path d="M60 816h30M75 801v30"/>
    <path d="M1510 816h30M1525 801v30"/>
  </g>
  <text x="1360" y="52" font-family="ui-monospace,Menlo,monospace" font-size="15" letter-spacing="3" fill="#fff" fill-opacity="0.18">DDS-ENG-447 REV C</text>

  <g fill="none" stroke="#fff" stroke-opacity="0.22" transform="translate(150,120)">
    <line x1="200" y1="120" x2="110" y2="60"/>
    <line x1="200" y1="120" x2="290" y2="60"/>
    <line x1="200" y1="120" x2="110" y2="180"/>
    <line x1="200" y1="120" x2="290" y2="180"/>
    <rect x="178" y="98" width="44" height="44" rx="8"/>
    <circle cx="110" cy="60" r="34"/>
    <circle cx="290" cy="60" r="34"/>
    <circle cx="110" cy="180" r="34"/>
    <circle cx="290" cy="180" r="34"/>
    <circle cx="110" cy="60" r="4" fill="#fff" fill-opacity="0.35" stroke="none"/>
    <circle cx="290" cy="60" r="4" fill="#fff" fill-opacity="0.35" stroke="none"/>
    <circle cx="110" cy="180" r="4" fill="#fff" fill-opacity="0.35" stroke="none"/>
    <circle cx="290" cy="180" r="4" fill="#fff" fill-opacity="0.35" stroke="none"/>
    <line x1="88" y1="48" x2="132" y2="72" stroke-opacity="0.13"/>
    <line x1="268" y1="48" x2="312" y2="72" stroke-opacity="0.13"/>
    <line x1="88" y1="168" x2="132" y2="192" stroke-opacity="0.13"/>
    <line x1="268" y1="168" x2="312" y2="192" stroke-opacity="0.13"/>
    <line x1="200" y1="18" x2="200" y2="256" stroke-opacity="0.1" stroke-dasharray="6 8"/>
    <line x1="54" y1="120" x2="346" y2="120" stroke-opacity="0.1" stroke-dasharray="6 8"/>
    <g stroke-opacity="0.3">
      <line x1="110" y1="270" x2="110" y2="284"/>
      <line x1="290" y1="270" x2="290" y2="284"/>
      <line x1="110" y1="277" x2="290" y2="277"/>
    </g>
    <text x="200" y="270" text-anchor="middle" font-family="ui-monospace,Menlo,monospace" font-size="16" letter-spacing="2" fill="#fff" stroke="none" fill-opacity="0.35">3200 MM</text>
    <text x="60" y="316" font-family="ui-monospace,Menlo,monospace" font-size="16" letter-spacing="2" fill="#fff" stroke="none" fill-opacity="0.3">SCOUT Q-2 QUADROTOR &#183; MTOW 38 KG</text>
  </g>

  <g fill="none" stroke="#fff" stroke-opacity="0.22" transform="translate(1080,300)">
    <rect x="40" y="60" width="200" height="30" rx="10"/>
    <line x1="80" y1="60" x2="80" y2="26"/>
    <line x1="200" y1="60" x2="200" y2="26"/>
    <line x1="40" y1="26" x2="120" y2="26"/>
    <line x1="160" y1="26" x2="240" y2="26"/>
    <circle cx="40" cy="26" r="5"/>
    <circle cx="120" cy="26" r="5"/>
    <circle cx="160" cy="26" r="5"/>
    <circle cx="240" cy="26" r="5"/>
    <line x1="55" y1="90" x2="55" y2="108"/>
    <line x1="225" y1="90" x2="225" y2="108"/>
    <line x1="35" y1="108" x2="75" y2="108"/>
    <line x1="205" y1="108" x2="245" y2="108"/>
    <line x1="140" y1="90" x2="140" y2="150" stroke-dasharray="5 6" stroke-opacity="0.3"/>
    <path d="M132 150h16l-8 12z" fill="#fff" fill-opacity="0.3" stroke="none"/>
    <rect x="104" y="166" width="72" height="48"/>
    <line x1="104" y1="166" x2="176" y2="214" stroke-opacity="0.16"/>
    <line x1="176" y1="166" x2="104" y2="214" stroke-opacity="0.16"/>
    <g stroke-opacity="0.3">
      <line x1="286" y1="60" x2="286" y2="214"/>
      <line x1="279" y1="60" x2="293" y2="60"/>
      <line x1="279" y1="214" x2="293" y2="214"/>
    </g>
    <text x="300" y="142" font-family="ui-monospace,Menlo,monospace" font-size="16" letter-spacing="2" fill="#fff" stroke="none" fill-opacity="0.35">3.1 M</text>
    <text x="40" y="252" font-family="ui-monospace,Menlo,monospace" font-size="16" letter-spacing="2" fill="#fff" stroke="none" fill-opacity="0.3">SKYHAULER H-9 &#183; SLUNG PAYLOAD 120 KG</text>
  </g>

  <g fill="none" stroke="#fff" stroke-opacity="0.2">
    <path d="M170 700 C 330 620, 470 760, 640 690" stroke-dasharray="10 10"/>
    <circle cx="170" cy="700" r="6" fill="#fff" stroke="none" fill-opacity="0.35"/>
    <circle cx="640" cy="690" r="6" fill="#fff" stroke="none" fill-opacity="0.35"/>
    <polygon points="196,686 220,693 199,705" fill="#fff" stroke="none" fill-opacity="0.35"/>
    <text x="405" y="650" text-anchor="middle" font-family="ui-monospace,Menlo,monospace" font-size="16" letter-spacing="2" fill="#fff" stroke="none" fill-opacity="0.32">RANGE 240 KM &#183; BVLOS CORRIDOR</text>
  </g>

  <g fill="none" stroke="#fff" stroke-opacity="0.18">
    <circle cx="1380" cy="170" r="120" stroke-dasharray="4 10"/>
    <circle cx="1380" cy="170" r="5" fill="#fff" stroke="none" fill-opacity="0.35"/>
    <line x1="1380" y1="170" x2="1468" y2="102" stroke-dasharray="3 6" stroke-opacity="0.25"/>
    <text x="1428" y="120" font-family="ui-monospace,Menlo,monospace" font-size="15" letter-spacing="2" fill="#fff" stroke="none" fill-opacity="0.32">LINK 42 KM</text>
  </g>

  <g transform="rotate(-12 800 680)">
    <g fill="none" stroke="#fff" stroke-opacity="0.26">
      <polygon points="548,680 523,723 473,723 448,680 473,637 523,637" stroke-width="2.5"/>
      <rect x="486" y="672" width="24" height="16" rx="3" stroke-width="2"/>
      <line x1="490" y1="676" x2="478" y2="664" stroke-width="2"/>
      <line x1="506" y1="676" x2="518" y2="664" stroke-width="2"/>
      <line x1="490" y1="684" x2="478" y2="696" stroke-width="2"/>
      <line x1="506" y1="684" x2="518" y2="696" stroke-width="2"/>
      <circle cx="476" cy="662" r="8" stroke-width="2"/>
      <circle cx="520" cy="662" r="8" stroke-width="2"/>
      <circle cx="476" cy="698" r="8" stroke-width="2"/>
      <circle cx="520" cy="698" r="8" stroke-width="2"/>
    </g>
    <text x="575" y="698" font-family="'Segoe UI',system-ui,sans-serif" font-size="46" letter-spacing="7" font-weight="300" fill="#fff" fill-opacity="0.22">DISCREET DRONE SERVICES</text>
    <line x1="578" y1="720" x2="1390" y2="720" stroke="#fff" stroke-opacity="0.14"/>
    <text x="580" y="748" font-family="'Segoe UI',system-ui,sans-serif" font-size="16" letter-spacing="6" fill="#fff" fill-opacity="0.16">AERIAL LOGISTICS &#183; HEAVY LIFT &#183; BEYOND LINE OF SIGHT</text>
  </g>
</svg>
